<svg xmlns="http://www.w3.org/2000/svg" viewBox="0 0 1800 242" width="1800" height="242" preserveAspectRatio="xMidYMid meet" style="width: 100%; height: 100%; transform: translate3d(0px, 0px, 0px);"><defs><clipPath id="__lottie_element_70"><rect width="1800" height="242" x="0" y="0"/></clipPath><filter id="__lottie_element_75" filterUnits="objectBoundingBox" x="0%" y="0%" width="100%" height="100%"><feComponentTransfer in="SourceGraphic"><feFuncA type="table" tableValues="1.0 0.0"/></feComponentTransfer></filter><mask id="__lottie_element_74" mask-type="alpha"><g filter="url(#__lottie_element_75)"><rect width="1800" height="242" x="0" y="0" fill="#ffffff" opacity="0"/><g style="display: none;" transform="matrix(-0.00033000000985339284,0,0,1,1535.6007080078125,123)" opacity="1"><g opacity="1" transform="matrix(1,0,0,1,-23.30500030517578,-1)"><path fill="rgb(15,15,15)" fill-opacity="1" d=" M658.6954956054688,-120 C658.6954956054688,-120 658.6954956054688,120 658.6954956054688,120 C658.6954956054688,120 -658.6954956054688,120 -658.6954956054688,120 C-658.6954956054688,120 -658.6954956054688,-120 -658.6954956054688,-120 C-658.6954956054688,-120 658.6954956054688,-120 658.6954956054688,-120z"/><path stroke-linecap="butt" stroke-linejoin="miter" fill-opacity="0" stroke-miterlimit="4" stroke="rgb(86,196,244)" stroke-opacity="1" stroke-width="0" d=" M658.6954956054688,-120 C658.6954956054688,-120 658.6954956054688,120 658.6954956054688,120 C658.6954956054688,120 -658.6954956054688,120 -658.6954956054688,120 C-658.6954956054688,120 -658.6954956054688,-120 -658.6954956054688,-120 C-658.6954956054688,-120 658.6954956054688,-120 658.6954956054688,-120z"/></g></g></g></mask><mask id="__lottie_element_79"><path fill="#ffffff" clip-rule="nonzero" d=" M733.6439819335938,1197.1529541015625 C725.7760009765625,1197.1529541015625 719.0040283203125,1198.845947265625 713.3270263671875,1202.2320556640625 C707.6500244140625,1205.6180419921875 703.5679931640625,1210.198974609375 701.0780029296875,1216.074951171875 C695.0029907226562,1203.427001953125 684.0479736328125,1197.1529541015625 668.4119873046875,1197.1529541015625 C655.166015625,1197.1529541015625 645.7050170898438,1201.5350341796875 639.8289794921875,1210.198974609375 C639.8289794921875,1210.198974609375 638.8330078125,1200.1400146484375 638.8330078125,1200.1400146484375 C638.8330078125,1200.1400146484375 618.8150024414062,1200.1400146484375 618.8150024414062,1200.1400146484375 C618.8150024414062,1200.1400146484375 618.8150024414062,1300.3289794921875 618.8150024414062,1300.3289794921875 C618.8150024414062,1300.3289794921875 640.427001953125,1300.3289794921875 640.427001953125,1300.3289794921875 C640.427001953125,1300.3289794921875 640.427001953125,1241.3709716796875 640.427001953125,1241.3709716796875 C640.427001953125,1233.5030517578125 642.5180053710938,1227.22998046875 646.7999877929688,1222.748046875 C651.0819702148438,1218.2659912109375 656.5599975585938,1216.074951171875 663.3319702148438,1216.074951171875 C669.8049926757812,1216.074951171875 674.9849853515625,1218.0670166015625 678.7689819335938,1222.1500244140625 C682.4539794921875,1226.2330322265625 684.3460083007812,1232.1090087890625 684.3460083007812,1239.5780029296875 C684.3460083007812,1239.5780029296875 684.3460083007812,1300.3289794921875 684.3460083007812,1300.3289794921875 C684.3460083007812,1300.3289794921875 705.5590209960938,1300.3289794921875 705.5590209960938,1300.3289794921875 C705.5590209960938,1300.3289794921875 705.5590209960938,1241.3709716796875 705.5590209960938,1241.3709716796875 C705.5590209960938,1233.5030517578125 707.6510009765625,1227.22998046875 711.9329833984375,1222.748046875 C716.1160278320312,1218.2659912109375 721.593017578125,1216.074951171875 728.364990234375,1216.074951171875 C734.8380126953125,1216.074951171875 740.0180053710938,1218.0670166015625 743.802001953125,1222.1500244140625 C747.4869995117188,1226.2330322265625 749.3790283203125,1232.1090087890625 749.3790283203125,1239.5780029296875 C749.3790283203125,1239.5780029296875 749.3790283203125,1300.3289794921875 749.3790283203125,1300.3289794921875 C749.3790283203125,1300.3289794921875 770.3930053710938,1300.3289794921875 770.3930053710938,1300.3289794921875 C770.3930053710938,1300.3289794921875 770.3930053710938,1236.2919921875 770.3930053710938,1236.2919921875 C770.3930053710938,1224.0419921875 767.0070190429688,1214.48095703125 760.333984375,1207.510009765625 C753.56201171875,1200.637939453125 744.698974609375,1197.1529541015625 733.6439819335938,1197.1529541015625" fill-opacity="1"/><path fill="#ffffff" clip-rule="nonzero" d=" M874.968017578125,1237.885009765625 C874.968017578125,1223.64404296875 870.9849853515625,1213.2869873046875 863.0180053710938,1206.9129638671875 C855.051025390625,1200.5389404296875 844.7919921875,1197.35205078125 832.343017578125,1197.35205078125 C811.5280151367188,1197.251953125 797.0880126953125,1205.1199951171875 789.02099609375,1220.9549560546875 C789.02099609375,1220.9549560546875 804.9559936523438,1230.116943359375 804.9559936523438,1230.116943359375 C810.0349731445312,1220.0579833984375 818.7990112304688,1215.0789794921875 831.2479858398438,1215.0789794921875 C846.2860107421875,1215.0789794921875 853.7550048828125,1221.8509521484375 853.7550048828125,1235.4949951171875 C853.7550048828125,1235.4949951171875 853.7550048828125,1239.3790283203125 853.7550048828125,1239.3790283203125 C853.7550048828125,1239.3790283203125 822.2849731445312,1239.3790283203125 822.2849731445312,1239.3790283203125 C811.1309814453125,1239.3790283203125 802.2670288085938,1242.16796875 795.6939697265625,1247.7449951171875 C789.1209716796875,1253.322021484375 785.833984375,1260.990966796875 785.833984375,1270.7509765625 C785.833984375,1280.7099609375 789.1209716796875,1288.5780029296875 795.7940063476562,1294.35400390625 C802.4669799804688,1300.1300048828125 811.2310180664062,1303.0179443359375 822.0859985351562,1303.0179443359375 C829.4559936523438,1303.0179443359375 835.9290161132812,1301.623046875 841.5059814453125,1298.8349609375 C847.0830078125,1296.0460205078125 851.2659912109375,1292.3609619140625 854.1539916992188,1287.8800048828125 C854.552001953125,1293.5570068359375 855.0499877929688,1297.739990234375 855.7470092773438,1300.3289794921875 C855.7470092773438,1300.3289794921875 876.760986328125,1300.3289794921875 876.760986328125,1300.3289794921875 C875.5659790039062,1297.04296875 874.968017578125,1289.9720458984375 874.968017578125,1278.9169921875 C874.968017578125,1278.9169921875 874.968017578125,1237.885009765625 874.968017578125,1237.885009765625" fill-opacity="1"/><path fill="#000000" clip-rule="nonzero" d=" M853.7550048828125,1257.10595703125 C853.7550048828125,1266.7659912109375 851.2659912109375,1274.0369873046875 846.18701171875,1278.9169921875 C841.1079711914062,1283.7969970703125 834.8330078125,1286.2869873046875 827.364013671875,1286.2869873046875 C821.2890014648438,1286.2869873046875 816.5089721679688,1284.991943359375 813.0230102539062,1282.302978515625 C809.5369873046875,1279.614013671875 807.843994140625,1275.72998046875 807.843994140625,1270.551025390625 C807.843994140625,1265.4720458984375 809.5380249023438,1261.5880126953125 812.823974609375,1258.800048828125 C816.1099853515625,1256.010986328125 820.8909912109375,1254.616943359375 827.1649780273438,1254.616943359375 C827.1649780273438,1254.616943359375 853.7550048828125,1254.616943359375 853.7550048828125,1254.616943359375 C853.7550048828125,1254.616943359375 853.7550048828125,1257.10595703125 853.7550048828125,1257.10595703125" fill-opacity="1"/><path fill="#ffffff" clip-rule="nonzero" d=" M1034.9189453125,1197.35205078125 C1019.97998046875,1197.35205078125 1007.9299926757812,1202.2320556640625 998.8670043945312,1211.991943359375 C989.8040161132812,1221.751953125 985.2230224609375,1234.4990234375 985.2230224609375,1250.333984375 C985.2230224609375,1266.26904296875 989.8040161132812,1279.0159912109375 998.8670043945312,1288.5770263671875 C1007.9299926757812,1298.237060546875 1019.8809814453125,1303.0179443359375 1034.52099609375,1303.0179443359375 C1044.8780517578125,1303.0179443359375 1054.1400146484375,1300.5279541015625 1062.20703125,1295.64794921875 C1070.2740478515625,1290.7679443359375 1076.2490234375,1283.89697265625 1080.0340576171875,1275.032958984375 C1080.0340576171875,1275.032958984375 1061.907958984375,1267.6629638671875 1061.907958984375,1267.6629638671875 C1056.4300537109375,1278.717041015625 1047.3680419921875,1284.1949462890625 1034.719970703125,1284.1949462890625 C1027.051025390625,1284.1949462890625 1020.47802734375,1282.0040283203125 1015.0999755859375,1277.7220458984375 C1009.7219848632812,1273.43994140625 1006.635986328125,1267.1650390625 1005.8389892578125,1258.699951171875 C1005.8389892578125,1258.699951171875 1083.91796875,1258.699951171875 1083.91796875,1258.699951171875 C1083.91796875,1258.699951171875 1083.91796875,1250.135009765625 1083.91796875,1250.135009765625 C1083.91796875,1234.1009521484375 1079.43701171875,1221.2540283203125 1070.572998046875,1211.6929931640625 C1061.6099853515625,1202.1319580078125 1049.758056640625,1197.35205078125 1034.9189453125,1197.35205078125" fill-opacity="1"/><path fill="#000000" clip-rule="nonzero" d=" M1006.0380249023438,1243.262939453125 C1006.9340209960938,1234.3990478515625 1009.9219970703125,1227.5279541015625 1015.0009765625,1222.64794921875 C1020.0800170898438,1217.866943359375 1026.552978515625,1215.47705078125 1034.6199951171875,1215.47705078125 C1042.5870361328125,1215.47705078125 1048.9620361328125,1217.866943359375 1053.842041015625,1222.5479736328125 C1058.7220458984375,1227.22900390625 1061.4100341796875,1234.199951171875 1061.907958984375,1243.262939453125 C1061.907958984375,1243.262939453125 1006.0380249023438,1243.262939453125 1006.0380249023438,1243.262939453125" fill-opacity="1"/><path fill="#ffffff" clip-rule="nonzero" d=" M1215.5799560546875,1197.1529541015625 C1207.7120361328125,1197.1529541015625 1200.93994140625,1198.845947265625 1195.262939453125,1202.2320556640625 C1189.5860595703125,1205.6180419921875 1185.5040283203125,1210.198974609375 1183.0140380859375,1216.074951171875 C1176.93896484375,1203.427001953125 1165.9840087890625,1197.1529541015625 1150.3480224609375,1197.1529541015625 C1137.10205078125,1197.1529541015625 1127.6409912109375,1201.5350341796875 1121.7650146484375,1210.198974609375 C1121.7650146484375,1210.198974609375 1120.76904296875,1200.1400146484375 1120.76904296875,1200.1400146484375 C1120.76904296875,1200.1400146484375 1100.7509765625,1200.1400146484375 1100.7509765625,1200.1400146484375 C1100.7509765625,1200.1400146484375 1100.7509765625,1300.3289794921875 1100.7509765625,1300.3289794921875 C1100.7509765625,1300.3289794921875 1122.363037109375,1300.3289794921875 1122.363037109375,1300.3289794921875 C1122.363037109375,1300.3289794921875 1122.363037109375,1241.3709716796875 1122.363037109375,1241.3709716796875 C1122.363037109375,1233.5030517578125 1124.4539794921875,1227.22998046875 1128.7359619140625,1222.748046875 C1133.0179443359375,1218.2659912109375 1138.4969482421875,1216.074951171875 1145.26904296875,1216.074951171875 C1151.7430419921875,1216.074951171875 1156.9200439453125,1218.0670166015625 1160.7049560546875,1222.1500244140625 C1164.3900146484375,1226.2330322265625 1166.281982421875,1232.1090087890625 1166.281982421875,1239.5780029296875 C1166.281982421875,1239.5780029296875 1166.281982421875,1300.3289794921875 1166.281982421875,1300.3289794921875 C1166.281982421875,1300.3289794921875 1187.4949951171875,1300.3289794921875 1187.4949951171875,1300.3289794921875 C1187.4949951171875,1300.3289794921875 1187.4949951171875,1241.3709716796875 1187.4949951171875,1241.3709716796875 C1187.4949951171875,1233.5030517578125 1189.5870361328125,1227.22998046875 1193.8690185546875,1222.748046875 C1198.052001953125,1218.2659912109375 1203.530029296875,1216.074951171875 1210.302001953125,1216.074951171875 C1216.7750244140625,1216.074951171875 1221.9539794921875,1218.0670166015625 1225.738037109375,1222.1500244140625 C1229.4229736328125,1226.2330322265625 1231.31494140625,1232.1090087890625 1231.31494140625,1239.5780029296875 C1231.31494140625,1239.5780029296875 1231.31494140625,1300.3289794921875 1231.31494140625,1300.3289794921875 C1231.31494140625,1300.3289794921875 1252.3289794921875,1300.3289794921875 1252.3289794921875,1300.3289794921875 C1252.3289794921875,1300.3289794921875 1252.3289794921875,1236.2919921875 1252.3289794921875,1236.2919921875 C1252.3289794921875,1224.0419921875 1248.9429931640625,1214.48095703125 1242.27001953125,1207.510009765625 C1235.498046875,1200.637939453125 1226.635009765625,1197.1529541015625 1215.5799560546875,1197.1529541015625" fill-opacity="1"/><path fill="#ffffff" clip-rule="nonzero" d=" M1366.864013671875,1250.135009765625 C1366.864013671875,1234.1009521484375 1362.383056640625,1221.2540283203125 1353.51904296875,1211.6929931640625 C1344.5560302734375,1202.1319580078125 1332.7039794921875,1197.35205078125 1317.864990234375,1197.35205078125 C1302.926025390625,1197.35205078125 1290.8759765625,1202.2320556640625 1281.81298828125,1211.991943359375 C1272.75,1221.751953125 1268.1689453125,1234.4990234375 1268.1689453125,1250.333984375 C1268.1689453125,1266.26904296875 1272.75,1279.0159912109375 1281.81298828125,1288.5770263671875 C1290.8759765625,1298.237060546875 1302.8270263671875,1303.0179443359375 1317.467041015625,1303.0179443359375 C1327.823974609375,1303.0179443359375 1337.0860595703125,1300.5279541015625 1345.1529541015625,1295.64794921875 C1353.219970703125,1290.7679443359375 1359.1949462890625,1283.89697265625 1362.97998046875,1275.032958984375 C1362.97998046875,1275.032958984375 1344.85400390625,1267.6629638671875 1344.85400390625,1267.6629638671875 C1339.3759765625,1278.717041015625 1330.31396484375,1284.1949462890625 1317.666015625,1284.1949462890625 C1309.998046875,1284.1949462890625 1303.4239501953125,1282.0040283203125 1298.0460205078125,1277.7220458984375 C1292.66796875,1273.43994140625 1289.5810546875,1267.1650390625 1288.7840576171875,1258.699951171875 C1288.7840576171875,1258.699951171875 1366.864013671875,1258.699951171875 1366.864013671875,1258.699951171875 C1366.864013671875,1258.699951171875 1366.864013671875,1250.135009765625 1366.864013671875,1250.135009765625" fill-opacity="1"/><path fill="#000000" clip-rule="nonzero" d=" M1288.9830322265625,1243.262939453125 C1289.8790283203125,1234.3990478515625 1292.8680419921875,1227.5279541015625 1297.947021484375,1222.64794921875 C1303.0260009765625,1217.866943359375 1309.4990234375,1215.47705078125 1317.5660400390625,1215.47705078125 C1325.532958984375,1215.47705078125 1331.906982421875,1217.866943359375 1336.7869873046875,1222.5479736328125 C1341.6669921875,1227.22900390625 1344.35595703125,1234.199951171875 1344.85400390625,1243.262939453125 C1344.85400390625,1243.262939453125 1288.9830322265625,1243.262939453125 1288.9830322265625,1243.262939453125" fill-opacity="1"/><path fill="#ffffff" clip-rule="nonzero" d=" M986.5130004882812,1200.1400146484375 C986.5130004882812,1200.1400146484375 959.3250122070312,1200.1400146484375 959.3250122070312,1200.1400146484375 C959.3250122070312,1200.1400146484375 917.2969970703125,1243.8609619140625 917.2969970703125,1243.8609619140625 C917.2969970703125,1243.8609619140625 917.2969970703125,1158.0030517578125 917.2969970703125,1158.0030517578125 C917.2969970703125,1158.0030517578125 917.2969970703125,1158.0030517578125 917.2969970703125,1158.0030517578125 C905.3610229492188,1158.0030517578125 895.6859741210938,1167.678955078125 895.6859741210938,1179.614013671875 C895.6859741210938,1179.614013671875 895.6859741210938,1300.3289794921875 895.6859741210938,1300.3289794921875 C895.6859741210938,1300.3289794921875 917.2969970703125,1300.3289794921875 917.2969970703125,1300.3289794921875 C917.2969970703125,1300.3289794921875 917.2969970703125,1272.54296875 917.2969970703125,1272.54296875 C917.2969970703125,1272.54296875 929.1480102539062,1260.1939697265625 929.1480102539062,1260.1939697265625 C929.1480102539062,1260.1939697265625 958.5280151367188,1300.3289794921875 958.5280151367188,1300.3289794921875 C958.5280151367188,1300.3289794921875 984.6209716796875,1300.3289794921875 984.6209716796875,1300.3289794921875 C984.6209716796875,1300.3289794921875 943.5889892578125,1245.0560302734375 943.5889892578125,1245.0560302734375 C943.5889892578125,1245.0560302734375 986.5130004882812,1200.1400146484375 986.5130004882812,1200.1400146484375" fill-opacity="1"/></mask><filter id="__lottie_element_82" filterUnits="objectBoundingBox" x="0%" y="0%" width="100%" height="100%"><feComponentTransfer in="SourceGraphic"><feFuncA type="table" tableValues="1.0 0.0"/></feComponentTransfer></filter><mask id="__lottie_element_81" mask-type="alpha"><g filter="url(#__lottie_element_82)"><rect width="1800" height="242" x="0" y="0" fill="#ffffff" opacity="0"/><g style="display: none;" transform="matrix(-0.00033000000985339284,0,0,1,1535.6007080078125,123)" opacity="1"><g opacity="1" transform="matrix(1,0,0,1,-23.30500030517578,-1)"><path fill="rgb(15,15,15)" fill-opacity="1" d=" M658.6954956054688,-120 C658.6954956054688,-120 658.6954956054688,120 658.6954956054688,120 C658.6954956054688,120 -658.6954956054688,120 -658.6954956054688,120 C-658.6954956054688,120 -658.6954956054688,-120 -658.6954956054688,-120 C-658.6954956054688,-120 658.6954956054688,-120 658.6954956054688,-120z"/><path stroke-linecap="butt" stroke-linejoin="miter" fill-opacity="0" stroke-miterlimit="4" stroke="rgb(86,196,244)" stroke-opacity="1" stroke-width="0" d=" M658.6954956054688,-120 C658.6954956054688,-120 658.6954956054688,120 658.6954956054688,120 C658.6954956054688,120 -658.6954956054688,120 -658.6954956054688,120 C-658.6954956054688,120 -658.6954956054688,-120 -658.6954956054688,-120 C-658.6954956054688,-120 658.6954956054688,-120 658.6954956054688,-120z"/></g></g></g></mask><mask id="__lottie_element_86"><path fill="#ffffff" clip-rule="nonzero" d=" M1476.031982421875,1288.3800048828125 C1467.0689697265625,1298.1400146484375 1455.3170166015625,1303.02001953125 1440.8759765625,1303.02001953125 C1433.2080078125,1303.02001953125 1426.3360595703125,1301.5269775390625 1420.06201171875,1298.5389404296875 C1413.7879638671875,1295.551025390625 1409.10595703125,1291.468017578125 1405.8199462890625,1286.2889404296875 C1405.8199462890625,1286.2889404296875 1405.8199462890625,1321.241943359375 1405.8199462890625,1321.241943359375 C1405.8199462890625,1332.738037109375 1396.5009765625,1342.0560302734375 1385.0059814453125,1342.0560302734375 C1385.0059814453125,1342.0560302734375 1385.0059814453125,1342.0560302734375 1385.0059814453125,1342.0560302734375 C1385.0059814453125,1342.0560302734375 1385.0059814453125,1200.1429443359375 1385.0059814453125,1200.1429443359375 C1385.0059814453125,1200.1429443359375 1404.22705078125,1200.1429443359375 1404.22705078125,1200.1429443359375 C1404.22705078125,1200.1429443359375 1405.2230224609375,1214.2850341796875 1405.2230224609375,1214.2850341796875 C1408.2110595703125,1209.10595703125 1412.7919921875,1205.02197265625 1418.866943359375,1201.93505859375 C1424.9420166015625,1198.8480224609375 1432.113037109375,1197.35400390625 1440.279052734375,1197.35400390625 C1454.8189697265625,1197.35400390625 1466.571044921875,1201.93505859375 1475.5340576171875,1211.197021484375 C1484.39794921875,1220.458984375 1488.97802734375,1233.1080322265625 1489.0780029296875,1249.1419677734375 C1489.376953125,1265.573974609375 1484.9949951171875,1278.719970703125 1476.031982421875,1288.3800048828125" fill-opacity="1"/><path fill="#000000" clip-rule="nonzero" d=" M1459.2010498046875,1274.1390380859375 C1464.678955078125,1268.06396484375 1467.467041015625,1259.9969482421875 1467.467041015625,1249.93798828125 C1467.467041015625,1239.8790283203125 1464.678955078125,1231.9119873046875 1459.2010498046875,1225.8370361328125 C1453.7230224609375,1219.862060546875 1446.35400390625,1216.8740234375 1437.291015625,1216.8740234375 C1428.029052734375,1216.8740234375 1420.6600341796875,1219.862060546875 1415.1820068359375,1225.93701171875 C1409.60498046875,1232.011962890625 1406.8160400390625,1240.0789794921875 1406.8160400390625,1249.93798828125 C1406.8160400390625,1259.9969482421875 1409.60498046875,1268.06396484375 1415.1820068359375,1274.1390380859375 C1420.759033203125,1280.2139892578125 1428.1290283203125,1283.2020263671875 1437.291015625,1283.2020263671875 C1446.35400390625,1283.2020263671875 1453.7230224609375,1280.2139892578125 1459.2010498046875,1274.1390380859375" fill-opacity="1"/><path fill="#ffffff" clip-rule="nonzero" d=" M1578.5159912109375,1300.3310546875 C1577.718994140625,1297.0450439453125 1577.1209716796875,1293.06103515625 1576.7230224609375,1288.281005859375 C1570.8470458984375,1298.041015625 1560.68896484375,1302.9210205078125 1546.1490478515625,1303.02001953125 C1541.0699462890625,1303.02001953125 1536.2900390625,1302.323974609375 1531.8079833984375,1301.029052734375 C1527.22705078125,1299.635009765625 1522.9439697265625,1297.4429931640625 1518.8609619140625,1294.35595703125 C1514.7779541015625,1291.26904296875 1511.490966796875,1286.885986328125 1509.0009765625,1281.1099853515625 C1506.510986328125,1275.4329833984375 1505.3170166015625,1268.6619873046875 1505.3170166015625,1260.7939453125 C1505.3170166015625,1260.7939453125 1505.3170166015625,1199.9439697265625 1505.3170166015625,1199.9439697265625 C1505.3170166015625,1199.9439697265625 1527.126953125,1199.9439697265625 1527.126953125,1199.9439697265625 C1527.126953125,1199.9439697265625 1527.126953125,1257.1090087890625 1527.126953125,1257.1090087890625 C1527.126953125,1266.8690185546875 1529.5169677734375,1273.740966796875 1534.197998046875,1277.625 C1538.8790283203125,1281.6090087890625 1544.35595703125,1283.5999755859375 1550.6300048828125,1283.5999755859375 C1557.501953125,1283.5999755859375 1563.5770263671875,1281.31005859375 1568.656005859375,1276.6290283203125 C1573.7349853515625,1272.0479736328125 1576.324951171875,1265.2750244140625 1576.324951171875,1256.31201171875 C1576.324951171875,1256.31201171875 1576.324951171875,1200.1429443359375 1576.324951171875,1200.1429443359375 C1576.324951171875,1200.1429443359375 1598.135009765625,1200.1429443359375 1598.135009765625,1200.1429443359375 C1598.135009765625,1200.1429443359375 1598.135009765625,1282.0069580078125 1598.135009765625,1282.0069580078125 C1598.135009765625,1288.6800537109375 1598.7330322265625,1294.7540283203125 1599.927978515625,1300.3310546875 C1599.927978515625,1300.3310546875 1578.5159912109375,1300.3310546875 1578.5159912109375,1300.3310546875" fill-opacity="1"/><path fill="#ffffff" clip-rule="nonzero" d=" M1643.949951171875,1157.9439697265625 C1643.949951171875,1157.9439697265625 1643.949951171875,1157.9439697265625 1643.949951171875,1157.9439697265625 C1643.949951171875,1157.9439697265625 1643.949951171875,1300.3310546875 1643.949951171875,1300.3310546875 C1643.949951171875,1300.3310546875 1622.3389892578125,1300.3310546875 1622.3389892578125,1300.3310546875 C1622.3389892578125,1300.3310546875 1622.3389892578125,1179.5550537109375 1622.3389892578125,1179.5550537109375 C1622.3389892578125,1167.6190185546875 1632.0140380859375,1157.9439697265625 1643.949951171875,1157.9439697265625" fill-opacity="1"/><path fill="#ffffff" clip-rule="nonzero" d=" M1685.782958984375,1281.7080078125 C1689.1689453125,1284.197998046875 1693.6510009765625,1285.3929443359375 1699.22802734375,1285.3929443359375 C1704.406982421875,1285.3929443359375 1708.68896484375,1284.2979736328125 1711.9749755859375,1282.2060546875 C1715.260986328125,1280.114990234375 1716.9549560546875,1276.8280029296875 1716.9549560546875,1272.345947265625 C1716.9549560546875,1266.3709716796875 1712.9720458984375,1262.487060546875 1705.10400390625,1260.594970703125 C1705.10400390625,1260.594970703125 1690.862060546875,1256.7099609375 1690.862060546875,1256.7099609375 C1672.238037109375,1251.6309814453125 1662.876953125,1242.071044921875 1662.876953125,1227.928955078125 C1662.876953125,1219.06494140625 1666.1639404296875,1211.7950439453125 1672.737060546875,1206.01904296875 C1679.2099609375,1200.2430419921875 1688.073974609375,1197.35400390625 1699.22802734375,1197.35400390625 C1709.18701171875,1197.35400390625 1717.552978515625,1199.5450439453125 1724.324951171875,1204.0269775390625 C1731.0970458984375,1208.509033203125 1735.1800537109375,1214.782958984375 1736.573974609375,1222.8499755859375 C1736.573974609375,1222.8499755859375 1717.154052734375,1227.530029296875 1717.154052734375,1227.530029296875 C1716.656005859375,1223.64599609375 1714.7640380859375,1220.5589599609375 1711.5770263671875,1218.2679443359375 C1708.3900146484375,1215.97705078125 1704.5059814453125,1214.8819580078125 1699.824951171875,1214.8819580078125 C1695.0450439453125,1214.8819580078125 1691.1610107421875,1216.0770263671875 1688.27294921875,1218.3680419921875 C1685.385009765625,1220.6590576171875 1683.8909912109375,1223.7449951171875 1683.8909912109375,1227.530029296875 C1683.8909912109375,1233.5050048828125 1688.27197265625,1237.68798828125 1697.135986328125,1239.97900390625 C1697.135986328125,1239.97900390625 1711.2779541015625,1243.6639404296875 1711.2779541015625,1243.6639404296875 C1729.5030517578125,1248.5439453125 1738.5660400390625,1258.2049560546875 1738.5660400390625,1272.5460205078125 C1738.5660400390625,1281.8079833984375 1735.0810546875,1289.177001953125 1728.208984375,1294.655029296875 C1721.238037109375,1300.2320556640625 1711.677001953125,1303.02001953125 1699.427001953125,1303.02001953125 C1687.9739990234375,1303.02001953125 1678.9119873046875,1300.531005859375 1672.239013671875,1295.4520263671875 C1665.467041015625,1290.373046875 1661.4830322265625,1283.699951171875 1660.2879638671875,1275.4339599609375 C1660.2879638671875,1275.4339599609375 1679.8079833984375,1271.947998046875 1679.8079833984375,1271.947998046875 C1680.3060302734375,1276.031005859375 1682.2969970703125,1279.218017578125 1685.782958984375,1281.7080078125" fill-opacity="1"/><path fill="#ffffff" clip-rule="nonzero" d=" M1848.01904296875,1258.7020263671875 C1848.01904296875,1258.7020263671875 1769.93994140625,1258.7020263671875 1769.93994140625,1258.7020263671875 C1770.737060546875,1267.1669921875 1773.823974609375,1273.4420166015625 1779.2020263671875,1277.7239990234375 C1784.5799560546875,1282.0069580078125 1791.154052734375,1284.197998046875 1798.822021484375,1284.197998046875 C1811.469970703125,1284.197998046875 1820.531982421875,1278.720947265625 1826.010009765625,1267.666015625 C1826.010009765625,1267.666015625 1844.135009765625,1275.0350341796875 1844.135009765625,1275.0350341796875 C1840.3509521484375,1283.8990478515625 1834.375,1290.77099609375 1826.3079833984375,1295.6510009765625 C1818.240966796875,1300.531005859375 1808.97900390625,1303.02001953125 1798.6219482421875,1303.02001953125 C1783.9820556640625,1303.02001953125 1772.031982421875,1298.239990234375 1762.968994140625,1288.5799560546875 C1753.906005859375,1279.01904296875 1749.324951171875,1266.27197265625 1749.324951171875,1250.3370361328125 C1749.324951171875,1234.501953125 1753.906005859375,1221.7540283203125 1762.968994140625,1211.9940185546875 C1772.031982421875,1202.2340087890625 1784.08203125,1197.35400390625 1799.02099609375,1197.35400390625 C1813.8599853515625,1197.35400390625 1825.7110595703125,1202.134033203125 1834.6739501953125,1211.6949462890625 C1843.5379638671875,1221.2559814453125 1848.01904296875,1234.10302734375 1848.01904296875,1250.136962890625 C1848.01904296875,1250.136962890625 1848.01904296875,1258.7020263671875 1848.01904296875,1258.7020263671875" fill-opacity="1"/><path fill="#000000" clip-rule="nonzero" d=" M1779.10205078125,1222.6500244140625 C1774.02294921875,1227.530029296875 1771.0350341796875,1234.4019775390625 1770.1390380859375,1243.2659912109375 C1770.1390380859375,1243.2659912109375 1826.010009765625,1243.2659912109375 1826.010009765625,1243.2659912109375 C1825.511962890625,1234.2030029296875 1822.822998046875,1227.2320556640625 1817.9429931640625,1222.551025390625 C1813.06298828125,1217.8699951171875 1806.68896484375,1215.47998046875 1798.7220458984375,1215.47998046875 C1790.655029296875,1215.47998046875 1784.1810302734375,1217.8699951171875 1779.10205078125,1222.6500244140625" fill-opacity="1"/></mask><mask id="__lottie_element_89"><path fill="#ffffff" clip-rule="nonzero" d=" M1730,1250 C1730,1316.2740478515625 1676.2740478515625,1370 1610,1370 C1543.7259521484375,1370 1490,1316.2740478515625 1490,1250 C1490,1183.7259521484375 1543.7259521484375,1130 1610,1130 C1676.2740478515625,1130 1730,1183.7259521484375 1730,1250" fill-opacity="1"/></mask><mask id="__lottie_element_92"><path fill="#ffffff" clip-rule="nonzero" d=" M1730,1250 C1730,1316.2740478515625 1676.2740478515625,1370 1610,1370 C1543.7259521484375,1370 1490,1316.2740478515625 1490,1250 C1490,1183.7259521484375 1543.7259521484375,1130 1610,1130 C1676.2740478515625,1130 1730,1183.7259521484375 1730,1250" fill-opacity="1"/></mask><mask id="__lottie_element_96"><path fill="#ffffff" clip-rule="nonzero" d=" M1730,1250 C1730,1316.2740478515625 1676.2740478515625,1370 1610,1370 C1543.7259521484375,1370 1490,1316.2740478515625 1490,1250 C1490,1183.7259521484375 1543.7259521484375,1130 1610,1130 C1676.2740478515625,1130 1730,1183.7259521484375 1730,1250" fill-opacity="1"/></mask><filter id="__lottie_element_102" filterUnits="objectBoundingBox" x="0%" y="0%" width="100%" height="100%"><feComponentTransfer in="SourceGraphic"><feFuncA type="table" tableValues="1.0 0.0"/></feComponentTransfer></filter><mask id="__lottie_element_101" mask-type="alpha"><g filter="url(#__lottie_element_102)"><rect width="1800" height="242" x="0" y="0" fill="#ffffff" opacity="0"/><g transform="matrix(1.1396700143814087,0,0,1,929.2549438476562,123)" opacity="1" style="display: none;"><g opacity="1" transform="matrix(1,0,0,1,-23.30500030517578,-1)"><path fill="rgb(15,15,15)" fill-opacity="1" d=" M658.6954956054688,-120 C658.6954956054688,-120 658.6954956054688,120 658.6954956054688,120 C658.6954956054688,120 -658.6954956054688,120 -658.6954956054688,120 C-658.6954956054688,120 -658.6954956054688,-120 -658.6954956054688,-120 C-658.6954956054688,-120 658.6954956054688,-120 658.6954956054688,-120z"/><path stroke-linecap="butt" stroke-linejoin="miter" fill-opacity="0" stroke-miterlimit="4" stroke="rgb(86,196,244)" stroke-opacity="1" stroke-width="0" d=" M658.6954956054688,-120 C658.6954956054688,-120 658.6954956054688,120 658.6954956054688,120 C658.6954956054688,120 -658.6954956054688,120 -658.6954956054688,120 C-658.6954956054688,120 -658.6954956054688,-120 -658.6954956054688,-120 C-658.6954956054688,-120 658.6954956054688,-120 658.6954956054688,-120z"/></g></g></g></mask><mask id="__lottie_element_106"><path fill="#ffffff" clip-rule="nonzero" d=" M733.6439819335938,1197.1529541015625 C725.7760009765625,1197.1529541015625 719.0040283203125,1198.845947265625 713.3270263671875,1202.2320556640625 C707.6500244140625,1205.6180419921875 703.5679931640625,1210.198974609375 701.0780029296875,1216.074951171875 C695.0029907226562,1203.427001953125 684.0479736328125,1197.1529541015625 668.4119873046875,1197.1529541015625 C655.166015625,1197.1529541015625 645.7050170898438,1201.5350341796875 639.8289794921875,1210.198974609375 C639.8289794921875,1210.198974609375 638.8330078125,1200.1400146484375 638.8330078125,1200.1400146484375 C638.8330078125,1200.1400146484375 618.8150024414062,1200.1400146484375 618.8150024414062,1200.1400146484375 C618.8150024414062,1200.1400146484375 618.8150024414062,1300.3289794921875 618.8150024414062,1300.3289794921875 C618.8150024414062,1300.3289794921875 640.427001953125,1300.3289794921875 640.427001953125,1300.3289794921875 C640.427001953125,1300.3289794921875 640.427001953125,1241.3709716796875 640.427001953125,1241.3709716796875 C640.427001953125,1233.5030517578125 642.5180053710938,1227.22998046875 646.7999877929688,1222.748046875 C651.0819702148438,1218.2659912109375 656.5599975585938,1216.074951171875 663.3319702148438,1216.074951171875 C669.8049926757812,1216.074951171875 674.9849853515625,1218.0670166015625 678.7689819335938,1222.1500244140625 C682.4539794921875,1226.2330322265625 684.3460083007812,1232.1090087890625 684.3460083007812,1239.5780029296875 C684.3460083007812,1239.5780029296875 684.3460083007812,1300.3289794921875 684.3460083007812,1300.3289794921875 C684.3460083007812,1300.3289794921875 705.5590209960938,1300.3289794921875 705.5590209960938,1300.3289794921875 C705.5590209960938,1300.3289794921875 705.5590209960938,1241.3709716796875 705.5590209960938,1241.3709716796875 C705.5590209960938,1233.5030517578125 707.6510009765625,1227.22998046875 711.9329833984375,1222.748046875 C716.1160278320312,1218.2659912109375 721.593017578125,1216.074951171875 728.364990234375,1216.074951171875 C734.8380126953125,1216.074951171875 740.0180053710938,1218.0670166015625 743.802001953125,1222.1500244140625 C747.4869995117188,1226.2330322265625 749.3790283203125,1232.1090087890625 749.3790283203125,1239.5780029296875 C749.3790283203125,1239.5780029296875 749.3790283203125,1300.3289794921875 749.3790283203125,1300.3289794921875 C749.3790283203125,1300.3289794921875 770.3930053710938,1300.3289794921875 770.3930053710938,1300.3289794921875 C770.3930053710938,1300.3289794921875 770.3930053710938,1236.2919921875 770.3930053710938,1236.2919921875 C770.3930053710938,1224.0419921875 767.0070190429688,1214.48095703125 760.333984375,1207.510009765625 C753.56201171875,1200.637939453125 744.698974609375,1197.1529541015625 733.6439819335938,1197.1529541015625" fill-opacity="1"/><path fill="#ffffff" clip-rule="nonzero" d=" M874.968017578125,1237.885009765625 C874.968017578125,1223.64404296875 870.9849853515625,1213.2869873046875 863.0180053710938,1206.9129638671875 C855.051025390625,1200.5389404296875 844.7919921875,1197.35205078125 832.343017578125,1197.35205078125 C811.5280151367188,1197.251953125 797.0880126953125,1205.1199951171875 789.02099609375,1220.9549560546875 C789.02099609375,1220.9549560546875 804.9559936523438,1230.116943359375 804.9559936523438,1230.116943359375 C810.0349731445312,1220.0579833984375 818.7990112304688,1215.0789794921875 831.2479858398438,1215.0789794921875 C846.2860107421875,1215.0789794921875 853.7550048828125,1221.8509521484375 853.7550048828125,1235.4949951171875 C853.7550048828125,1235.4949951171875 853.7550048828125,1239.3790283203125 853.7550048828125,1239.3790283203125 C853.7550048828125,1239.3790283203125 822.2849731445312,1239.3790283203125 822.2849731445312,1239.3790283203125 C811.1309814453125,1239.3790283203125 802.2670288085938,1242.16796875 795.6939697265625,1247.7449951171875 C789.1209716796875,1253.322021484375 785.833984375,1260.990966796875 785.833984375,1270.7509765625 C785.833984375,1280.7099609375 789.1209716796875,1288.5780029296875 795.7940063476562,1294.35400390625 C802.4669799804688,1300.1300048828125 811.2310180664062,1303.0179443359375 822.0859985351562,1303.0179443359375 C829.4559936523438,1303.0179443359375 835.9290161132812,1301.623046875 841.5059814453125,1298.8349609375 C847.0830078125,1296.0460205078125 851.2659912109375,1292.3609619140625 854.1539916992188,1287.8800048828125 C854.552001953125,1293.5570068359375 855.0499877929688,1297.739990234375 855.7470092773438,1300.3289794921875 C855.7470092773438,1300.3289794921875 876.760986328125,1300.3289794921875 876.760986328125,1300.3289794921875 C875.5659790039062,1297.04296875 874.968017578125,1289.9720458984375 874.968017578125,1278.9169921875 C874.968017578125,1278.9169921875 874.968017578125,1237.885009765625 874.968017578125,1237.885009765625" fill-opacity="1"/><path fill="#000000" clip-rule="nonzero" d=" M853.7550048828125,1257.10595703125 C853.7550048828125,1266.7659912109375 851.2659912109375,1274.0369873046875 846.18701171875,1278.9169921875 C841.1079711914062,1283.7969970703125 834.8330078125,1286.2869873046875 827.364013671875,1286.2869873046875 C821.2890014648438,1286.2869873046875 816.5089721679688,1284.991943359375 813.0230102539062,1282.302978515625 C809.5369873046875,1279.614013671875 807.843994140625,1275.72998046875 807.843994140625,1270.551025390625 C807.843994140625,1265.4720458984375 809.5380249023438,1261.5880126953125 812.823974609375,1258.800048828125 C816.1099853515625,1256.010986328125 820.8909912109375,1254.616943359375 827.1649780273438,1254.616943359375 C827.1649780273438,1254.616943359375 853.7550048828125,1254.616943359375 853.7550048828125,1254.616943359375 C853.7550048828125,1254.616943359375 853.7550048828125,1257.10595703125 853.7550048828125,1257.10595703125" fill-opacity="1"/><path fill="#ffffff" clip-rule="nonzero" d=" M1034.9189453125,1197.35205078125 C1019.97998046875,1197.35205078125 1007.9299926757812,1202.2320556640625 998.8670043945312,1211.991943359375 C989.8040161132812,1221.751953125 985.2230224609375,1234.4990234375 985.2230224609375,1250.333984375 C985.2230224609375,1266.26904296875 989.8040161132812,1279.0159912109375 998.8670043945312,1288.5770263671875 C1007.9299926757812,1298.237060546875 1019.8809814453125,1303.0179443359375 1034.52099609375,1303.0179443359375 C1044.8780517578125,1303.0179443359375 1054.1400146484375,1300.5279541015625 1062.20703125,1295.64794921875 C1070.2740478515625,1290.7679443359375 1076.2490234375,1283.89697265625 1080.0340576171875,1275.032958984375 C1080.0340576171875,1275.032958984375 1061.907958984375,1267.6629638671875 1061.907958984375,1267.6629638671875 C1056.4300537109375,1278.717041015625 1047.3680419921875,1284.1949462890625 1034.719970703125,1284.1949462890625 C1027.051025390625,1284.1949462890625 1020.47802734375,1282.0040283203125 1015.0999755859375,1277.7220458984375 C1009.7219848632812,1273.43994140625 1006.635986328125,1267.1650390625 1005.8389892578125,1258.699951171875 C1005.8389892578125,1258.699951171875 1083.91796875,1258.699951171875 1083.91796875,1258.699951171875 C1083.91796875,1258.699951171875 1083.91796875,1250.135009765625 1083.91796875,1250.135009765625 C1083.91796875,1234.1009521484375 1079.43701171875,1221.2540283203125 1070.572998046875,1211.6929931640625 C1061.6099853515625,1202.1319580078125 1049.758056640625,1197.35205078125 1034.9189453125,1197.35205078125" fill-opacity="1"/><path fill="#000000" clip-rule="nonzero" d=" M1006.0380249023438,1243.262939453125 C1006.9340209960938,1234.3990478515625 1009.9219970703125,1227.5279541015625 1015.0009765625,1222.64794921875 C1020.0800170898438,1217.866943359375 1026.552978515625,1215.47705078125 1034.6199951171875,1215.47705078125 C1042.5870361328125,1215.47705078125 1048.9620361328125,1217.866943359375 1053.842041015625,1222.5479736328125 C1058.7220458984375,1227.22900390625 1061.4100341796875,1234.199951171875 1061.907958984375,1243.262939453125 C1061.907958984375,1243.262939453125 1006.0380249023438,1243.262939453125 1006.0380249023438,1243.262939453125" fill-opacity="1"/><path fill="#ffffff" clip-rule="nonzero" d=" M1215.5799560546875,1197.1529541015625 C1207.7120361328125,1197.1529541015625 1200.93994140625,1198.845947265625 1195.262939453125,1202.2320556640625 C1189.5860595703125,1205.6180419921875 1185.5040283203125,1210.198974609375 1183.0140380859375,1216.074951171875 C1176.93896484375,1203.427001953125 1165.9840087890625,1197.1529541015625 1150.3480224609375,1197.1529541015625 C1137.10205078125,1197.1529541015625 1127.6409912109375,1201.5350341796875 1121.7650146484375,1210.198974609375 C1121.7650146484375,1210.198974609375 1120.76904296875,1200.1400146484375 1120.76904296875,1200.1400146484375 C1120.76904296875,1200.1400146484375 1100.7509765625,1200.1400146484375 1100.7509765625,1200.1400146484375 C1100.7509765625,1200.1400146484375 1100.7509765625,1300.3289794921875 1100.7509765625,1300.3289794921875 C1100.7509765625,1300.3289794921875 1122.363037109375,1300.3289794921875 1122.363037109375,1300.3289794921875 C1122.363037109375,1300.3289794921875 1122.363037109375,1241.3709716796875 1122.363037109375,1241.3709716796875 C1122.363037109375,1233.5030517578125 1124.4539794921875,1227.22998046875 1128.7359619140625,1222.748046875 C1133.0179443359375,1218.2659912109375 1138.4969482421875,1216.074951171875 1145.26904296875,1216.074951171875 C1151.7430419921875,1216.074951171875 1156.9200439453125,1218.0670166015625 1160.7049560546875,1222.1500244140625 C1164.3900146484375,1226.2330322265625 1166.281982421875,1232.1090087890625 1166.281982421875,1239.5780029296875 C1166.281982421875,1239.5780029296875 1166.281982421875,1300.3289794921875 1166.281982421875,1300.3289794921875 C1166.281982421875,1300.3289794921875 1187.4949951171875,1300.3289794921875 1187.4949951171875,1300.3289794921875 C1187.4949951171875,1300.3289794921875 1187.4949951171875,1241.3709716796875 1187.4949951171875,1241.3709716796875 C1187.4949951171875,1233.5030517578125 1189.5870361328125,1227.22998046875 1193.8690185546875,1222.748046875 C1198.052001953125,1218.2659912109375 1203.530029296875,1216.074951171875 1210.302001953125,1216.074951171875 C1216.7750244140625,1216.074951171875 1221.9539794921875,1218.0670166015625 1225.738037109375,1222.1500244140625 C1229.4229736328125,1226.2330322265625 1231.31494140625,1232.1090087890625 1231.31494140625,1239.5780029296875 C1231.31494140625,1239.5780029296875 1231.31494140625,1300.3289794921875 1231.31494140625,1300.3289794921875 C1231.31494140625,1300.3289794921875 1252.3289794921875,1300.3289794921875 1252.3289794921875,1300.3289794921875 C1252.3289794921875,1300.3289794921875 1252.3289794921875,1236.2919921875 1252.3289794921875,1236.2919921875 C1252.3289794921875,1224.0419921875 1248.9429931640625,1214.48095703125 1242.27001953125,1207.510009765625 C1235.498046875,1200.637939453125 1226.635009765625,1197.1529541015625 1215.5799560546875,1197.1529541015625" fill-opacity="1"/><path fill="#ffffff" clip-rule="nonzero" d=" M1366.864013671875,1250.135009765625 C1366.864013671875,1234.1009521484375 1362.383056640625,1221.2540283203125 1353.51904296875,1211.6929931640625 C1344.5560302734375,1202.1319580078125 1332.7039794921875,1197.35205078125 1317.864990234375,1197.35205078125 C1302.926025390625,1197.35205078125 1290.8759765625,1202.2320556640625 1281.81298828125,1211.991943359375 C1272.75,1221.751953125 1268.1689453125,1234.4990234375 1268.1689453125,1250.333984375 C1268.1689453125,1266.26904296875 1272.75,1279.0159912109375 1281.81298828125,1288.5770263671875 C1290.8759765625,1298.237060546875 1302.8270263671875,1303.0179443359375 1317.467041015625,1303.0179443359375 C1327.823974609375,1303.0179443359375 1337.0860595703125,1300.5279541015625 1345.1529541015625,1295.64794921875 C1353.219970703125,1290.7679443359375 1359.1949462890625,1283.89697265625 1362.97998046875,1275.032958984375 C1362.97998046875,1275.032958984375 1344.85400390625,1267.6629638671875 1344.85400390625,1267.6629638671875 C1339.3759765625,1278.717041015625 1330.31396484375,1284.1949462890625 1317.666015625,1284.1949462890625 C1309.998046875,1284.1949462890625 1303.4239501953125,1282.0040283203125 1298.0460205078125,1277.7220458984375 C1292.66796875,1273.43994140625 1289.5810546875,1267.1650390625 1288.7840576171875,1258.699951171875 C1288.7840576171875,1258.699951171875 1366.864013671875,1258.699951171875 1366.864013671875,1258.699951171875 C1366.864013671875,1258.699951171875 1366.864013671875,1250.135009765625 1366.864013671875,1250.135009765625" fill-opacity="1"/><path fill="#000000" clip-rule="nonzero" d=" M1288.9830322265625,1243.262939453125 C1289.8790283203125,1234.3990478515625 1292.8680419921875,1227.5279541015625 1297.947021484375,1222.64794921875 C1303.0260009765625,1217.866943359375 1309.4990234375,1215.47705078125 1317.5660400390625,1215.47705078125 C1325.532958984375,1215.47705078125 1331.906982421875,1217.866943359375 1336.7869873046875,1222.5479736328125 C1341.6669921875,1227.22900390625 1344.35595703125,1234.199951171875 1344.85400390625,1243.262939453125 C1344.85400390625,1243.262939453125 1288.9830322265625,1243.262939453125 1288.9830322265625,1243.262939453125" fill-opacity="1"/><path fill="#ffffff" clip-rule="nonzero" d=" M986.5130004882812,1200.1400146484375 C986.5130004882812,1200.1400146484375 959.3250122070312,1200.1400146484375 959.3250122070312,1200.1400146484375 C959.3250122070312,1200.1400146484375 917.2969970703125,1243.8609619140625 917.2969970703125,1243.8609619140625 C917.2969970703125,1243.8609619140625 917.2969970703125,1158.0030517578125 917.2969970703125,1158.0030517578125 C917.2969970703125,1158.0030517578125 917.2969970703125,1158.0030517578125 917.2969970703125,1158.0030517578125 C905.3610229492188,1158.0030517578125 895.6859741210938,1167.678955078125 895.6859741210938,1179.614013671875 C895.6859741210938,1179.614013671875 895.6859741210938,1300.3289794921875 895.6859741210938,1300.3289794921875 C895.6859741210938,1300.3289794921875 917.2969970703125,1300.3289794921875 917.2969970703125,1300.3289794921875 C917.2969970703125,1300.3289794921875 917.2969970703125,1272.54296875 917.2969970703125,1272.54296875 C917.2969970703125,1272.54296875 929.1480102539062,1260.1939697265625 929.1480102539062,1260.1939697265625 C929.1480102539062,1260.1939697265625 958.5280151367188,1300.3289794921875 958.5280151367188,1300.3289794921875 C958.5280151367188,1300.3289794921875 984.6209716796875,1300.3289794921875 984.6209716796875,1300.3289794921875 C984.6209716796875,1300.3289794921875 943.5889892578125,1245.0560302734375 943.5889892578125,1245.0560302734375 C943.5889892578125,1245.0560302734375 986.5130004882812,1200.1400146484375 986.5130004882812,1200.1400146484375" fill-opacity="1"/></mask><filter id="__lottie_element_109" filterUnits="objectBoundingBox" x="0%" y="0%" width="100%" height="100%"><feComponentTransfer in="SourceGraphic"><feFuncA type="table" tableValues="1.0 0.0"/></feComponentTransfer></filter><mask id="__lottie_element_108" mask-type="alpha"><g filter="url(#__lottie_element_109)"><rect width="1800" height="242" x="0" y="0" fill="#ffffff" opacity="0"/><g transform="matrix(1.1396700143814087,0,0,1,929.2549438476562,123)" opacity="1" style="display: none;"><g opacity="1" transform="matrix(1,0,0,1,-23.30500030517578,-1)"><path fill="rgb(15,15,15)" fill-opacity="1" d=" M658.6954956054688,-120 C658.6954956054688,-120 658.6954956054688,120 658.6954956054688,120 C658.6954956054688,120 -658.6954956054688,120 -658.6954956054688,120 C-658.6954956054688,120 -658.6954956054688,-120 -658.6954956054688,-120 C-658.6954956054688,-120 658.6954956054688,-120 658.6954956054688,-120z"/><path stroke-linecap="butt" stroke-linejoin="miter" fill-opacity="0" stroke-miterlimit="4" stroke="rgb(86,196,244)" stroke-opacity="1" stroke-width="0" d=" M658.6954956054688,-120 C658.6954956054688,-120 658.6954956054688,120 658.6954956054688,120 C658.6954956054688,120 -658.6954956054688,120 -658.6954956054688,120 C-658.6954956054688,120 -658.6954956054688,-120 -658.6954956054688,-120 C-658.6954956054688,-120 658.6954956054688,-120 658.6954956054688,-120z"/></g></g></g></mask><mask id="__lottie_element_113"><path fill="#ffffff" clip-rule="nonzero" d=" M1476.031982421875,1288.3800048828125 C1467.0689697265625,1298.1400146484375 1455.3170166015625,1303.02001953125 1440.8759765625,1303.02001953125 C1433.2080078125,1303.02001953125 1426.3360595703125,1301.5269775390625 1420.06201171875,1298.5389404296875 C1413.7879638671875,1295.551025390625 1409.10595703125,1291.468017578125 1405.8199462890625,1286.2889404296875 C1405.8199462890625,1286.2889404296875 1405.8199462890625,1321.241943359375 1405.8199462890625,1321.241943359375 C1405.8199462890625,1332.738037109375 1396.5009765625,1342.0560302734375 1385.0059814453125,1342.0560302734375 C1385.0059814453125,1342.0560302734375 1385.0059814453125,1342.0560302734375 1385.0059814453125,1342.0560302734375 C1385.0059814453125,1342.0560302734375 1385.0059814453125,1200.1429443359375 1385.0059814453125,1200.1429443359375 C1385.0059814453125,1200.1429443359375 1404.22705078125,1200.1429443359375 1404.22705078125,1200.1429443359375 C1404.22705078125,1200.1429443359375 1405.2230224609375,1214.2850341796875 1405.2230224609375,1214.2850341796875 C1408.2110595703125,1209.10595703125 1412.7919921875,1205.02197265625 1418.866943359375,1201.93505859375 C1424.9420166015625,1198.8480224609375 1432.113037109375,1197.35400390625 1440.279052734375,1197.35400390625 C1454.8189697265625,1197.35400390625 1466.571044921875,1201.93505859375 1475.5340576171875,1211.197021484375 C1484.39794921875,1220.458984375 1488.97802734375,1233.1080322265625 1489.0780029296875,1249.1419677734375 C1489.376953125,1265.573974609375 1484.9949951171875,1278.719970703125 1476.031982421875,1288.3800048828125" fill-opacity="1"/><path fill="#000000" clip-rule="nonzero" d=" M1459.2010498046875,1274.1390380859375 C1464.678955078125,1268.06396484375 1467.467041015625,1259.9969482421875 1467.467041015625,1249.93798828125 C1467.467041015625,1239.8790283203125 1464.678955078125,1231.9119873046875 1459.2010498046875,1225.8370361328125 C1453.7230224609375,1219.862060546875 1446.35400390625,1216.8740234375 1437.291015625,1216.8740234375 C1428.029052734375,1216.8740234375 1420.6600341796875,1219.862060546875 1415.1820068359375,1225.93701171875 C1409.60498046875,1232.011962890625 1406.8160400390625,1240.0789794921875 1406.8160400390625,1249.93798828125 C1406.8160400390625,1259.9969482421875 1409.60498046875,1268.06396484375 1415.1820068359375,1274.1390380859375 C1420.759033203125,1280.2139892578125 1428.1290283203125,1283.2020263671875 1437.291015625,1283.2020263671875 C1446.35400390625,1283.2020263671875 1453.7230224609375,1280.2139892578125 1459.2010498046875,1274.1390380859375" fill-opacity="1"/><path fill="#ffffff" clip-rule="nonzero" d=" M1578.5159912109375,1300.3310546875 C1577.718994140625,1297.0450439453125 1577.1209716796875,1293.06103515625 1576.7230224609375,1288.281005859375 C1570.8470458984375,1298.041015625 1560.68896484375,1302.9210205078125 1546.1490478515625,1303.02001953125 C1541.0699462890625,1303.02001953125 1536.2900390625,1302.323974609375 1531.8079833984375,1301.029052734375 C1527.22705078125,1299.635009765625 1522.9439697265625,1297.4429931640625 1518.8609619140625,1294.35595703125 C1514.7779541015625,1291.26904296875 1511.490966796875,1286.885986328125 1509.0009765625,1281.1099853515625 C1506.510986328125,1275.4329833984375 1505.3170166015625,1268.6619873046875 1505.3170166015625,1260.7939453125 C1505.3170166015625,1260.7939453125 1505.3170166015625,1199.9439697265625 1505.3170166015625,1199.9439697265625 C1505.3170166015625,1199.9439697265625 1527.126953125,1199.9439697265625 1527.126953125,1199.9439697265625 C1527.126953125,1199.9439697265625 1527.126953125,1257.1090087890625 1527.126953125,1257.1090087890625 C1527.126953125,1266.8690185546875 1529.5169677734375,1273.740966796875 1534.197998046875,1277.625 C1538.8790283203125,1281.6090087890625 1544.35595703125,1283.5999755859375 1550.6300048828125,1283.5999755859375 C1557.501953125,1283.5999755859375 1563.5770263671875,1281.31005859375 1568.656005859375,1276.6290283203125 C1573.7349853515625,1272.0479736328125 1576.324951171875,1265.2750244140625 1576.324951171875,1256.31201171875 C1576.324951171875,1256.31201171875 1576.324951171875,1200.1429443359375 1576.324951171875,1200.1429443359375 C1576.324951171875,1200.1429443359375 1598.135009765625,1200.1429443359375 1598.135009765625,1200.1429443359375 C1598.135009765625,1200.1429443359375 1598.135009765625,1282.0069580078125 1598.135009765625,1282.0069580078125 C1598.135009765625,1288.6800537109375 1598.7330322265625,1294.7540283203125 1599.927978515625,1300.3310546875 C1599.927978515625,1300.3310546875 1578.5159912109375,1300.3310546875 1578.5159912109375,1300.3310546875" fill-opacity="1"/><path fill="#ffffff" clip-rule="nonzero" d=" M1643.949951171875,1157.9439697265625 C1643.949951171875,1157.9439697265625 1643.949951171875,1157.9439697265625 1643.949951171875,1157.9439697265625 C1643.949951171875,1157.9439697265625 1643.949951171875,1300.3310546875 1643.949951171875,1300.3310546875 C1643.949951171875,1300.3310546875 1622.3389892578125,1300.3310546875 1622.3389892578125,1300.3310546875 C1622.3389892578125,1300.3310546875 1622.3389892578125,1179.5550537109375 1622.3389892578125,1179.5550537109375 C1622.3389892578125,1167.6190185546875 1632.0140380859375,1157.9439697265625 1643.949951171875,1157.9439697265625" fill-opacity="1"/><path fill="#ffffff" clip-rule="nonzero" d=" M1685.782958984375,1281.7080078125 C1689.1689453125,1284.197998046875 1693.6510009765625,1285.3929443359375 1699.22802734375,1285.3929443359375 C1704.406982421875,1285.3929443359375 1708.68896484375,1284.2979736328125 1711.9749755859375,1282.2060546875 C1715.260986328125,1280.114990234375 1716.9549560546875,1276.8280029296875 1716.9549560546875,1272.345947265625 C1716.9549560546875,1266.3709716796875 1712.9720458984375,1262.487060546875 1705.10400390625,1260.594970703125 C1705.10400390625,1260.594970703125 1690.862060546875,1256.7099609375 1690.862060546875,1256.7099609375 C1672.238037109375,1251.6309814453125 1662.876953125,1242.071044921875 1662.876953125,1227.928955078125 C1662.876953125,1219.06494140625 1666.1639404296875,1211.7950439453125 1672.737060546875,1206.01904296875 C1679.2099609375,1200.2430419921875 1688.073974609375,1197.35400390625 1699.22802734375,1197.35400390625 C1709.18701171875,1197.35400390625 1717.552978515625,1199.5450439453125 1724.324951171875,1204.0269775390625 C1731.0970458984375,1208.509033203125 1735.1800537109375,1214.782958984375 1736.573974609375,1222.8499755859375 C1736.573974609375,1222.8499755859375 1717.154052734375,1227.530029296875 1717.154052734375,1227.530029296875 C1716.656005859375,1223.64599609375 1714.7640380859375,1220.5589599609375 1711.5770263671875,1218.2679443359375 C1708.3900146484375,1215.97705078125 1704.5059814453125,1214.8819580078125 1699.824951171875,1214.8819580078125 C1695.0450439453125,1214.8819580078125 1691.1610107421875,1216.0770263671875 1688.27294921875,1218.3680419921875 C1685.385009765625,1220.6590576171875 1683.8909912109375,1223.7449951171875 1683.8909912109375,1227.530029296875 C1683.8909912109375,1233.5050048828125 1688.27197265625,1237.68798828125 1697.135986328125,1239.97900390625 C1697.135986328125,1239.97900390625 1711.2779541015625,1243.6639404296875 1711.2779541015625,1243.6639404296875 C1729.5030517578125,1248.5439453125 1738.5660400390625,1258.2049560546875 1738.5660400390625,1272.5460205078125 C1738.5660400390625,1281.8079833984375 1735.0810546875,1289.177001953125 1728.208984375,1294.655029296875 C1721.238037109375,1300.2320556640625 1711.677001953125,1303.02001953125 1699.427001953125,1303.02001953125 C1687.9739990234375,1303.02001953125 1678.9119873046875,1300.531005859375 1672.239013671875,1295.4520263671875 C1665.467041015625,1290.373046875 1661.4830322265625,1283.699951171875 1660.2879638671875,1275.4339599609375 C1660.2879638671875,1275.4339599609375 1679.8079833984375,1271.947998046875 1679.8079833984375,1271.947998046875 C1680.3060302734375,1276.031005859375 1682.2969970703125,1279.218017578125 1685.782958984375,1281.7080078125" fill-opacity="1"/><path fill="#ffffff" clip-rule="nonzero" d=" M1848.01904296875,1258.7020263671875 C1848.01904296875,1258.7020263671875 1769.93994140625,1258.7020263671875 1769.93994140625,1258.7020263671875 C1770.737060546875,1267.1669921875 1773.823974609375,1273.4420166015625 1779.2020263671875,1277.7239990234375 C1784.5799560546875,1282.0069580078125 1791.154052734375,1284.197998046875 1798.822021484375,1284.197998046875 C1811.469970703125,1284.197998046875 1820.531982421875,1278.720947265625 1826.010009765625,1267.666015625 C1826.010009765625,1267.666015625 1844.135009765625,1275.0350341796875 1844.135009765625,1275.0350341796875 C1840.3509521484375,1283.8990478515625 1834.375,1290.77099609375 1826.3079833984375,1295.6510009765625 C1818.240966796875,1300.531005859375 1808.97900390625,1303.02001953125 1798.6219482421875,1303.02001953125 C1783.9820556640625,1303.02001953125 1772.031982421875,1298.239990234375 1762.968994140625,1288.5799560546875 C1753.906005859375,1279.01904296875 1749.324951171875,1266.27197265625 1749.324951171875,1250.3370361328125 C1749.324951171875,1234.501953125 1753.906005859375,1221.7540283203125 1762.968994140625,1211.9940185546875 C1772.031982421875,1202.2340087890625 1784.08203125,1197.35400390625 1799.02099609375,1197.35400390625 C1813.8599853515625,1197.35400390625 1825.7110595703125,1202.134033203125 1834.6739501953125,1211.6949462890625 C1843.5379638671875,1221.2559814453125 1848.01904296875,1234.10302734375 1848.01904296875,1250.136962890625 C1848.01904296875,1250.136962890625 1848.01904296875,1258.7020263671875 1848.01904296875,1258.7020263671875" fill-opacity="1"/><path fill="#000000" clip-rule="nonzero" d=" M1779.10205078125,1222.6500244140625 C1774.02294921875,1227.530029296875 1771.0350341796875,1234.4019775390625 1770.1390380859375,1243.2659912109375 C1770.1390380859375,1243.2659912109375 1826.010009765625,1243.2659912109375 1826.010009765625,1243.2659912109375 C1825.511962890625,1234.2030029296875 1822.822998046875,1227.2320556640625 1817.9429931640625,1222.551025390625 C1813.06298828125,1217.8699951171875 1806.68896484375,1215.47998046875 1798.7220458984375,1215.47998046875 C1790.655029296875,1215.47998046875 1784.1810302734375,1217.8699951171875 1779.10205078125,1222.6500244140625" fill-opacity="1"/></mask></defs><g clip-path="url(#__lottie_element_70)"><g mask="url(#__lottie_element_108)" style="display: none;"><g mask="url(#__lottie_element_113)" transform="matrix(1,0,0,1,-350,-1127)" opacity="1"><rect width="2500" height="2500" fill="#bcbec0"/></g></g><g mask="url(#__lottie_element_101)" style="display: none;"><g mask="url(#__lottie_element_106)" transform="matrix(1,0,0,1,-350,-1127)" opacity="1"><rect width="2500" height="2500" fill="#0f0f0f"/></g></g><g transform="matrix(1,0,0,1,1479.68798828125,118.5)" opacity="1" style="display: none;"><path fill="rgb(188,190,192)" fill-opacity="1" d=" M-372.18798828125,4.288000106811523 C-372.18798828125,-43.625 -420.2019958496094,-47.084999084472656 -420.2019958496094,-47.084999084472656 C-420.2019958496094,-47.084999084472656 -423.3280029296875,-47.159000396728516 -424.239013671875,-47.159000396728516 C-422.3190002441406,-47.159000396728516 -474.56201171875,-44.375 -474.56201171875,2.9560000896453857 C-474.56201171875,54.5 -425.2569885253906,55.88399887084961 -425.2569885253906,55.88399887084961 C-425.2569885253906,55.88399887084961 -421.35101318359375,55.939998626708984 -421.35101318359375,55.939998626708984 C-421.35101318359375,55.939998626708984 -372.18798828125,52.375 -372.18798828125,4.288000106811523z"/><path stroke-linecap="butt" stroke-linejoin="miter" fill-opacity="0" stroke-miterlimit="4" stroke="rgb(86,196,244)" stroke-opacity="1" stroke-width="0" d=" M-372.18798828125,4.288000106811523 C-372.18798828125,-43.625 -420.2019958496094,-47.084999084472656 -420.2019958496094,-47.084999084472656 C-420.2019958496094,-47.084999084472656 -423.3280029296875,-47.159000396728516 -424.239013671875,-47.159000396728516 C-422.3190002441406,-47.159000396728516 -474.56201171875,-44.375 -474.56201171875,2.9560000896453857 C-474.56201171875,54.5 -425.2569885253906,55.88399887084961 -425.2569885253906,55.88399887084961 C-425.2569885253906,55.88399887084961 -421.35101318359375,55.939998626708984 -421.35101318359375,55.939998626708984 C-421.35101318359375,55.939998626708984 -372.18798828125,52.375 -372.18798828125,4.288000106811523z"/></g><g mask="url(#__lottie_element_96)" style="display: block;" transform="matrix(0.4300000071525574,0,0,0.4300000071525574,363.8499755859375,-414.5)" opacity="1"><rect width="2500" height="2500" fill="#bcbec0"/></g><g mask="url(#__lottie_element_92)" style="display: block;" transform="matrix(0.4300000071525574,0,0,0.4300000071525574,181.5999755859375,-414.5)" opacity="1"><rect width="2500" height="2500" fill="#0f0f0f"/></g><g mask="url(#__lottie_element_89)" style="display: block;" transform="matrix(0.4300000071525574,0,0,0.4300000071525574,52.5999755859375,-414.5)" opacity="1"><rect width="2500" height="2500" fill="#0f0f0f"/></g><g mask="url(#__lottie_element_81)" style="display: none;"><g mask="url(#__lottie_element_86)" transform="matrix(1,0,0,1,-350,-1127)" opacity="1"><rect width="2500" height="2500" fill="#bcbec0"/></g></g><g mask="url(#__lottie_element_74)" style="display: none;"><g mask="url(#__lottie_element_79)" transform="matrix(1,0,0,1,-350,-1127)" opacity="1"><rect width="2500" height="2500" fill="#0f0f0f"/></g></g><g style="display: none;" transform="matrix(1,0,0,1,1479.68701171875,119.5)" opacity="1"><path fill="rgb(188,190,192)" fill-opacity="1" d=" M-371.68798828125,4.296999931335449 C-374.8869934082031,-44.75600051879883 -421.4360046386719,-47.89699935913086 -421.4360046386719,-47.89699935913086 C-421.4360046386719,-47.89699935913086 -423.33099365234375,-47.97200012207031 -424.2510070800781,-47.97200012207031 C-422.31201171875,-47.97200012207031 -471.989013671875,-47.97100067138672 -474.43798828125,2.9519999027252197 C-472.6319885253906,49.345001220703125 -428.2770080566406,54.821998596191406 -428.2770080566406,54.821998596191406 C-428.2770080566406,54.821998596191406 -418.33599853515625,54.87799835205078 -418.33599853515625,54.87799835205078 C-418.33599853515625,54.87799835205078 -374.4580078125,51.48899841308594 -371.68798828125,4.296999931335449z"/><path stroke-linecap="butt" stroke-linejoin="miter" fill-opacity="0" stroke-miterlimit="4" stroke="rgb(86,196,244)" stroke-opacity="1" stroke-width="0" d=" M-371.68798828125,4.296999931335449 C-374.8869934082031,-44.75600051879883 -421.4360046386719,-47.89699935913086 -421.4360046386719,-47.89699935913086 C-421.4360046386719,-47.89699935913086 -423.33099365234375,-47.97200012207031 -424.2510070800781,-47.97200012207031 C-422.31201171875,-47.97200012207031 -471.989013671875,-47.97100067138672 -474.43798828125,2.9519999027252197 C-472.6319885253906,49.345001220703125 -428.2770080566406,54.821998596191406 -428.2770080566406,54.821998596191406 C-428.2770080566406,54.821998596191406 -418.33599853515625,54.87799835205078 -418.33599853515625,54.87799835205078 C-418.33599853515625,54.87799835205078 -374.4580078125,51.48899841308594 -371.68798828125,4.296999931335449z"/></g></g></svg>