<svg xmlns="http://www.w3.org/2000/svg" width="112px" height="112px" viewBox="0 0 112 112"><g stroke="none" stroke-width="1" fill="none" fill-rule="evenodd"><g transform="translate(-664.000000, -271.000000)"><g transform="translate(480.000000, 220.000000)"><g transform="translate(184.000000, 51.000000)"><path d="M52.7508905,107.355891 L52.7511086,112 C24.6358644,110.397862 2.05840343,88.1337607 4.51158299e-06,60.1727779 L4.65461406,60.1723435 C6.69491705,85.5717181 27.1995969,105.76732 52.7508905,107.355891 Z M62.0332026,111.772343 L62.0324692,107.107491 C86.2759634,104.282697 105.379725,84.6425161 107.345386,60.1723435 L111.999995,60.1727779 C110.010007,87.2044837 88.8421849,108.911685 62.0332026,111.772343 Z M111.924036,50.8999004 L107.262496,50.9004416 C104.895097,26.8627915 85.9689795,7.68153359 62.0324692,4.89250884 L62.0332026,0.227657212 C88.5349241,3.05552852 109.524052,24.3004145 111.924036,50.8999004 Z M52.7511086,-7.82637843e-13 L52.7508905,4.64410892 C27.5113044,6.21330068 7.19595292,25.9383073 4.73750416,50.9004416 L0.075964019,50.8999004 C2.55940914,23.3753944 24.9473871,1.58438554 52.7511086,-7.82637843e-13 Z" id="Oval" fill="#000000" fill-rule="nonzero"/><polyline id="Path-4" stroke="#000000" stroke-width="5" points="38 50.7440098 53.1539046 66 76 43"/></g></g></g></g></svg>